<svg id="Layer_1" data-name="Layer 1" xmlns="http://www.w3.org/2000/svg" viewBox="0 0 784.13 341.6"><defs><style>.cls-1{fill:#a01e22;}.cls-2{fill:#883334;opacity:0.89;}.cls-3{fill:#353535;}.cls-4{fill:#4c4d4e;}</style></defs><title>Logo Final (SVG)</title><path class="cls-1" d="M365,284.05l-9.3-5.07a1.12,1.12,0,0,0-1.54.5,47,47,0,0,1-17.52,19.91,46.37,46.37,0,0,1-25.28,7.36,47.32,47.32,0,0,1-47.59-47.6,46.07,46.07,0,0,1,6.44-23.79A48.73,48.73,0,0,1,287.56,218a46.93,46.93,0,0,1,49.07,1,47.7,47.7,0,0,1,17.52,20,1.1,1.1,0,0,0,.67.58,1.13,1.13,0,0,0,.88-.09l9.3-5.25a1.11,1.11,0,0,0,.45-1.45A60.22,60.22,0,0,0,311.35,199a58.38,58.38,0,0,0-30,8.1,61.24,61.24,0,0,0-21.95,21.95,59.91,59.91,0,0,0-.09,60.32,60.37,60.37,0,0,0,22,22,59.79,59.79,0,0,0,62-1.12,59.87,59.87,0,0,0,22.22-24.72A1.11,1.11,0,0,0,365,284.05Z"/><path class="cls-1" d="M447.83,231.83H437.34a1.11,1.11,0,0,0-1.11,1.11V281.3a26.2,26.2,0,0,1-3.17,12.34,27.73,27.73,0,0,1-8.37,9.76,18.59,18.59,0,0,1-11,3.68A21.47,21.47,0,0,1,402.56,304a23.14,23.14,0,0,1-8.23-8.3,22,22,0,0,1-3.06-11.2V232.94a1.11,1.11,0,0,0-1.11-1.11H379.67a1.1,1.1,0,0,0-1.1,1.11v51.58c0,10.74,3.15,19.37,9.36,25.64s14.87,9.46,25.74,9.46a23.3,23.3,0,0,0,13.84-4.6,38.76,38.76,0,0,0,8.72-8.88V317.5a1.11,1.11,0,0,0,1.11,1.11h10.49a1.11,1.11,0,0,0,1.11-1.11V232.94A1.11,1.11,0,0,0,447.83,231.83Z"/><path class="cls-1" d="M535.06,237.39a43.38,43.38,0,0,0-22.12-5.9c-10.28,0-19.63,4.26-27.81,12.66V192.86a1.11,1.11,0,0,0-1.11-1.11H473.53a1.11,1.11,0,0,0-1.11,1.11V317.5a1.11,1.11,0,0,0,1.11,1.11H484a1.11,1.11,0,0,0,1.11-1.11V307.21A50.51,50.51,0,0,0,497,315.94a33.84,33.84,0,0,0,16,4,43.3,43.3,0,0,0,22.21-5.91,44.38,44.38,0,0,0-.09-76.66Zm5.25,54.18a31.49,31.49,0,0,1-27.37,15.69,30.91,30.91,0,0,1-16.58-4.74A29.59,29.59,0,0,1,485.13,290V260.45a31.68,31.68,0,1,1,55.18,31.12Z"/><path class="cls-1" d="M639.26,237.15h0A42.46,42.46,0,0,0,616.94,231a43.56,43.56,0,0,0-22.12,5.9,44.43,44.43,0,0,0-16.12,16,44.17,44.17,0,0,0,0,44.42,45.14,45.14,0,0,0,16.12,16.13,43.75,43.75,0,0,0,45.46-.79,44.16,44.16,0,0,0,16.22-18,1.12,1.12,0,0,0,0-.86,1.09,1.09,0,0,0-.57-.64l-9.3-4.4a1.12,1.12,0,0,0-1.48.53,30.37,30.37,0,0,1-11.58,12.9,32,32,0,0,1-32.12.81A32,32,0,0,1,590,292.28a30.51,30.51,0,0,1-4.81-13.92h74.07a1.1,1.1,0,0,0,1.1-1.08,46.47,46.47,0,0,0-5.28-23.38A43,43,0,0,0,639.26,237.15ZM586.43,266a31.81,31.81,0,0,1,30.51-22.64,29.75,29.75,0,0,1,19.26,6.77A31.53,31.53,0,0,1,646.78,266Z"/><path class="cls-1" d="M783.88,316.63l-47-58.67,46.46-58.15a1.12,1.12,0,0,0-.87-1.81H769.15a1.12,1.12,0,0,0-.87.42L728.73,247.9l-39.55-49.48a1.12,1.12,0,0,0-.87-.42H675.12a1.11,1.11,0,0,0-.86,1.81L720.72,258l-47,58.67a1.1,1.1,0,0,0,.86,1.8H688a1.12,1.12,0,0,0,.87-.41l40.06-50,39.89,50a1.12,1.12,0,0,0,.87.41H783a1.1,1.1,0,0,0,.86-1.8Z"/><path class="cls-2" d="M471.5,124.46s-11.31-19.24-24.51-31c-12-10.69-23.22-22.72-42.12-28.31-26-7.68-63.49-15.52-119.66-7.63-6.27.88-15.24,1.9-22,4.4,0,0,57.51-42.95,132.71-58.37,64.67-13.27,121,13.25,128,38.41a28.5,28.5,0,0,0-8.48-.63c-19.85,1-38,23-43.65,48.08C468.24,105.06,471.5,124.46,471.5,124.46Z"/><path class="cls-1" d="M366,120.36c-104.5-17.3-174.94,62.46-174.94,139.57,0,30.49,10.91,58.71,30.31,81.67C182.92,318.3,157,274.13,157,223.48c0-74.92,56.74-135.66,126.74-135.66C341.78,87.82,366,120.36,366,120.36Z"/><path class="cls-1" d="M471.5,124.6s-12-19.12-24.51-31c-11.37-10.8-23.57-22-42.12-28.32C379.37,56.61,340,52,283.4,57.78c-6.52.67-13.19,2.41-20.22,4.28,0,0,56.09-41.77,132-52.41C460.53.5,515.29,28.7,520.84,53a29.49,29.49,0,0,0-8.44-1.06C492.54,51.78,475,70,471.16,94.9A101.51,101.51,0,0,0,471.5,124.6Z"/><path class="cls-3" d="M78.86,20S49,38.81,51.36,71.77c2,28.44,26.7,46.79,62.15,46.79v0a143.83,143.83,0,0,0,40-7.18c25.79-6.81,84.48-48.52,129.89-53.55,56.35-6.23,105.06-1,129.68,10.7-4,19.88,3.59,48.23,21.73,73.45,13,18.05,29,31.39,44.39,38.44a127.58,127.58,0,0,1-42.5-10.54c-21-9.07-37.59-18.18-47.7-32.16l-3.66-5.49c-20.66-31.17-55.88-50.71-100.1-50.71-60.4,0-118.61,39.68-126.54,90.48,0,0-18.1,9.77-48.53,8-48.39-2.88-92.66-35-92.49-75.4C17.81,66.06,46.1,28.14,78.86,20Z"/><path class="cls-4" d="M161.31,172.14c-17.54,12.11-34.1,19.43-58.13,19.43C46.2,191.57,0,151,0,100.85,0,57.66,34.28,21,80.26,11.89c0,0-35.52,21.34-41.14,53.41-5.09,29.1,17,48.05,48.71,55,17.94,4,50.69-3.68,69.8-10.44C182.78,101,241.12,70,285.21,81.54c-60.4,0-112.2,45.63-123.9,90.6"/></svg>